<svg width="40" height="43" viewBox="0 0 40 43" fill="none" xmlns="http://www.w3.org/2000/svg">
<path d="M6.66634 35.8333C5.74967 35.8333 4.95801 35.4899 4.29134 34.8031C3.65245 34.0864 3.33301 33.2354 3.33301 32.25V10.75C3.33301 9.76454 3.65245 8.92843 4.29134 8.24162C4.95801 7.52496 5.74967 7.16663 6.66634 7.16663H33.333C34.2497 7.16663 35.0275 7.52496 35.6663 8.24162C36.333 8.92843 36.6663 9.76454 36.6663 10.75V32.25C36.6663 33.2354 36.333 34.0864 35.6663 34.8031C35.0275 35.4899 34.2497 35.8333 33.333 35.8333H6.66634ZM19.9997 23.2916L33.333 14.3333V10.75L19.9997 19.7083L6.66634 10.75V14.3333L19.9997 23.2916Z" fill="#74655B"/>
</svg>
